Coordinates
version=1
nRows=16
nColumns=40
inDegrees=yes

Units are S.I. units (second, meters, Newtons, ...)
If the header above contains a line with 'inDegrees', this indicates whether rotational values are in degrees (yes) or radians (no).

endheader
time	pelvis_tilt	pelvis_list	pelvis_rotation	pelvis_tx	pelvis_ty	pelvis_tz	hip_flexion_r	hip_adduction_r	hip_rotation_r	knee_angle_r	knee_angle_r_beta	ankle_angle_r	subtalar_angle_r	mtp_angle_r	hip_flexion_l	hip_adduction_l	hip_rotation_l	knee_angle_l	knee_angle_l_beta	ankle_angle_l	subtalar_angle_l	mtp_angle_l	lumbar_extension	lumbar_bending	lumbar_rotation	arm_flex_r	arm_add_r	arm_rot_r	elbow_flex_r	pro_sup_r	wrist_flex_r	wrist_dev_r	arm_flex_l	arm_add_l	arm_rot_l	elbow_flex_l	pro_sup_l	wrist_flex_l	wrist_dev_l
      4.67500000	    -41.33848818	     -2.52577511	      1.31701848	     -0.38458448	      0.58660185	     -0.88894362	    106.13771916	    -21.12988283	     -0.95623303	     98.29007706	      1.71548547	     32.02789645	      0.00000000	      0.00000000	    110.20573350	    -21.48679437	      3.77121505	     97.75833211	      1.70620477	     30.75215508	      0.00000000	      0.00000000	    -19.28935140	      1.77752673	     -8.00944073	    -31.20828857	    -42.44905143	     10.11106049	    121.21140815	     87.59625136	      0.00000000	      0.00000000	    -49.14322614	    -34.44527243	     -0.37111432	    116.26804973	     88.04731238	      0.00000000	      0.00000000
      4.68000000	    -41.50899475	     -2.37011493	      0.84871625	     -0.38469014	      0.58640065	     -0.88770138	    106.30751398	    -20.44501824	     -0.85119378	     98.18951887	      1.71373040	     32.03699001	      0.00000000	      0.00000000	    110.38036331	    -22.05981809	      3.79859684	     97.78568669	      1.70668219	     30.65438420	      0.00000000	      0.00000000	    -19.08486109	      1.45780080	     -7.64032294	    -30.94391041	    -42.46143972	      9.96597645	    121.78187522	     87.49308258	      0.00000000	      0.00000000	    -49.08297316	    -34.71679079	     -0.35691302	    116.32211494	     88.11619050	      0.00000000	      0.00000000
      4.68500000	    -41.46050960	     -2.30503230	      1.11519374	     -0.38390477	      0.58671716	     -0.88843205	    106.23517680	    -20.78982769	     -0.71904537	     98.22587364	      1.71436491	     32.02352679	      0.00000000	      0.00000000	    110.14558368	    -21.75237201	      3.64783283	     97.74813965	      1.70602687	     30.67690788	      0.00000000	      0.00000000	    -19.06295395	      1.55151467	     -7.69509648	    -30.90045836	    -42.33679825	     10.22861487	    121.28772000	     87.67734892	      0.00000000	      0.00000000	    -48.56122303	    -35.16099504	      0.13798775	    116.22046685	     87.99179016	      0.00000000	      0.00000000
      4.69000000	    -41.01603552	     -2.36323707	      1.48106500	     -0.38214027	      0.58778589	     -0.88933474	    105.60874288	    -21.28110059	     -0.74537125	     98.32292306	      1.71605874	     32.20920673	      0.00000000	      0.00000000	    109.46244226	    -21.41913667	      3.50560393	     97.75559601	      1.70615701	     30.89152220	      0.00000000	      0.00000000	    -19.43053688	      1.83447698	     -7.95692708	    -30.56612156	    -42.33938222	      9.96312455	    121.67931676	     87.58606923	      0.00000000	      0.00000000	    -48.06007730	    -35.34782061	      0.53704747	    116.02959572	     88.04346472	      0.00000000	      0.00000000
      4.69500000	    -40.06119879	     -2.16869731	      0.62317973	     -0.37944975	      0.59014552	     -0.88705914	    104.28641000	    -20.26127710	     -0.95658393	     98.21756065	      1.71421982	     32.29762995	      0.00000000	      0.00000000	    108.30489498	    -22.75490683	      3.44373684	     97.98454393	      1.71015291	     30.97365503	      0.00000000	      0.00000000	    -20.39949676	      1.31623616	     -7.15407915	    -29.75681478	    -42.12191381	     10.47488896	    121.39630839	     87.67908773	      0.00000000	      0.00000000	    -47.60189859	    -35.75695361	      0.72280824	    115.93162690	     87.97604057	      0.00000000	      0.00000000
      4.70000000	    -41.00718953	     -2.05915413	      0.44701304	     -0.38113881	      0.58905017	     -0.88661060	    105.35465736	    -19.79812961	     -0.64563089	     97.95992634	      1.70972325	     32.25562031	      0.00000000	      0.00000000	    109.20851453	    -22.63723965	      3.60599786	     97.67342678	      1.70472289	     31.08718534	      0.00000000	      0.00000000	    -19.19125821	      1.17084640	     -7.11763812	    -29.40237591	    -42.28980585	     10.83622663	    121.50612913	     87.63945510	      0.00000000	      0.00000000	    -47.64541769	    -36.06409078	      0.79571112	    116.15990039	     87.98001755	      0.00000000	      0.00000000
      4.70500000	    -40.73624251	     -1.85830149	      0.80059681	     -0.37959590	      0.59038076	     -0.88776872	    105.00158360	    -20.25450277	     -0.39181558	     97.94379497	      1.70944170	     32.32206507	      0.00000000	      0.00000000	    108.48930864	    -22.21546604	      3.24407081	     97.55305081	      1.70262193	     31.25512936	      0.00000000	      0.00000000	    -19.27969372	      1.19110502	     -7.44524643	    -28.96468308	    -42.27825590	     11.03139113	    121.36797885	     87.49394700	      0.00000000	      0.00000000	    -47.14793763	    -36.32385995	      1.19268712	    115.96081004	     88.06616466	      0.00000000	      0.00000000
      4.71000000	    -40.30220663	     -1.86783556	      0.33371293	     -0.37767026	      0.59223212	     -0.88636282	    104.21695669	    -19.63757665	     -0.59657127	     97.80806953	      1.70707285	     32.31019123	      0.00000000	      0.00000000	    107.85120237	    -22.79298276	      3.46237652	     97.49253594	      1.70156575	     31.23276833	      0.00000000	      0.00000000	    -19.55174912	      1.03884320	     -6.98405994	    -28.30948085	    -42.00950583	     11.31677177	    121.23890900	     87.56896908	      0.00000000	      0.00000000	    -46.74004076	    -36.54934296	      1.22538265	    115.86119006	     88.00037879	      0.00000000	      0.00000000
      4.71500000	    -40.11067119	     -1.60083893	      0.21921259	     -0.37624744	      0.59362976	     -0.88637677	    103.89898589	    -19.42688218	     -0.29907646	     97.68046186	      1.70484567	     32.44942978	      0.00000000	      0.00000000	    107.24657695	    -22.95651581	      3.10317582	     97.43194606	      1.70050826	     31.56797716	      0.00000000	      0.00000000	    -19.44869307	      0.79512575	     -6.98201537	    -27.66348624	    -42.09078950	     11.99530288	    120.88525452	     87.61215434	      0.00000000	      0.00000000	    -46.30168958	    -36.82647596	      1.69253760	    115.74193357	     87.94320112	      0.00000000	      0.00000000
      4.72000000	    -39.84510409	     -1.55594441	      0.22071362	     -0.37477897	      0.59556171	     -0.88656953	    103.33512698	    -19.38458899	     -0.29824408	     97.44538577	      1.70074282	     32.55549891	      0.00000000	      0.00000000	    106.66821251	    -22.90753359	      3.02874499	     97.28481889	      1.69794040	     31.57889467	      0.00000000	      0.00000000	    -19.42379982	      0.83268148	     -6.92895542	    -27.08513740	    -42.11557288	     12.73457261	    120.20406665	     87.60605493	      0.00000000	      0.00000000	    -45.70504470	    -37.17521171	      2.12257537	    115.61474158	     87.93069103	      0.00000000	      0.00000000
      4.72500000	    -38.99561273	     -1.49640640	     -0.81656455	     -0.37158562	      0.59855280	     -0.88398772	    101.92871501	    -18.13759329	     -0.62436926	     97.17206893	      1.69597254	     32.78712208	      0.00000000	      0.00000000	    105.52083202	    -24.37432231	      3.05860459	     97.38217788	      1.69963964	     31.83862767	      0.00000000	      0.00000000	    -19.93795168	      0.39292124	     -6.04908615	    -26.01088442	    -42.01395422	     13.75836619	    119.70456946	     87.56793447	      0.00000000	      0.00000000	    -45.22750975	    -37.47641359	      2.36865561	    115.37076528	     87.89833846	      0.00000000	      0.00000000
      4.73000000	    -39.57440713	     -1.42079803	     -0.31896468	     -0.37211334	      0.59935625	     -0.88555546	    102.43866556	    -18.56903758	     -0.30269773	     96.85662941	      1.69046709	     32.67218163	      0.00000000	      0.00000000	    105.74485371	    -23.38891722	      3.03152735	     96.90299995	      1.69127640	     31.75169962	      0.00000000	      0.00000000	    -18.89110864	      0.62687605	     -6.51612166	    -25.60760624	    -42.19731138	     14.06065177	    119.62251841	     87.17504234	      0.00000000	      0.00000000	    -44.78903615	    -37.71137971	      2.79397367	    115.33773718	     88.02758636	      0.00000000	      0.00000000
      4.73500000	    -38.49709547	     -1.39875671	     -0.19590836	     -0.36807664	      0.60307409	     -0.88623229	    100.80445382	    -18.86658223	     -0.47041398	     96.75334794	      1.68866448	     32.85211030	      0.00000000	      0.00000000	    104.02424988	    -23.36591428	      2.73422456	     96.81442145	      1.68973042	     32.27039865	      0.00000000	      0.00000000	    -19.56409442	      0.69082324	     -7.63107152	    -22.86367261	    -42.81686597	     16.54828355	    118.81099689	     87.50101481	      0.00000000	      0.00000000	    -45.48548641	    -36.69656987	      1.74296005	    115.22490807	     87.86266060	      0.00000000	      0.00000000
      4.74000000	    -38.77454684	     -1.22584386	     -0.69717727	     -0.36788372	      0.60499930	     -0.88513521	    100.82167940	    -18.04182710	     -0.30856451	     96.21858156	      1.67933105	     32.73681491	      0.00000000	      0.00000000	    103.91678500	    -23.75761736	      2.72641981	     96.38368865	      1.68221271	     32.21153114	      0.00000000	      0.00000000	    -18.81236416	      0.40009045	     -7.21292070	    -22.34843317	    -42.77669323	     16.97509408	    118.60760883	     87.48277829	      0.00000000	      0.00000000	    -45.17543839	    -37.04891394	      1.98089182	    115.22272630	     87.88368447	      0.00000000	      0.00000000
      4.74500000	    -38.37102222	     -1.26757469	     -0.47607032	     -0.36544584	      0.60800727	     -0.88595752	     99.93145827	    -18.33640198	     -0.43274671	     95.93386622	      1.67436183	     32.80026891	      0.00000000	      0.00000000	    103.00985056	    -23.40446847	      2.64993132	     96.09728976	      1.67721411	     32.27735816	      0.00000000	      0.00000000	    -18.64890786	      0.63754139	     -7.39085954	    -21.61789569	    -42.80623067	     17.54504103	    118.25256764	     87.44701701	      0.00000000	      0.00000000	    -44.50929979	    -37.21610827	      2.55822261	    114.86863131	     87.86507093	      0.00000000	      0.00000000
      4.75000000	    -37.94351641	     -1.15991685	     -0.93902960	     -0.36336546	      0.61161608	     -0.88502186	     99.00078493	    -17.69556435	     -0.46161604	     95.44667485	      1.66585874	     32.77527189	      0.00000000	      0.00000000	    102.01781548	    -23.93109803	      2.49728065	     95.74475912	      1.67106129	     32.41650200	      0.00000000	      0.00000000	    -18.54347846	      0.42820230	     -6.99870908	    -20.83039765	    -42.71296799	     18.19377870	    117.82143701	     87.42514589	      0.00000000	      0.00000000	    -44.06058081	    -37.53773274	      2.81683289	    114.78365938	     87.85034171	      0.00000000	      0.00000000
